<svg preserveAspectRatio="none" width="100%" height="100%" overflow="visible" style="display: block;" viewBox="0 0 71.1113 20.6406" fill="none" xmlns="http://www.w3.org/2000/svg">
<path id="logo" d="M2.84863 0C4.12852 0.000117989 5.05676 0.992742 6.30469 2.84863L15.8408 17.0879C16.1928 17.6318 16.3525 18.1441 16.3525 18.624C16.3525 19.808 15.3284 20.6406 14.2725 20.6406C12.7685 20.6406 12.096 19.5521 11.584 17.9521L10.7842 15.4561C10.0482 13.1523 8.70435 12.544 7.23242 12.5439H5.76074C4.22479 12.5439 3.52055 13.2803 3.52051 15.3281V20.3203H0V3.23242C0 0.992422 1.15263 0 2.84863 0ZM46.9639 4C51.7319 4 55.4121 7.55231 55.4121 12.3203C55.4121 17.1203 51.7319 20.6406 46.9639 20.6406C42.1639 20.6406 38.4844 17.1203 38.4844 12.3203C38.4844 7.55232 42.1639 4.00002 46.9639 4ZM60.0713 4C61.831 4.00012 62.6315 4.83278 63.9434 6.84863L70.5986 17.0879C70.9506 17.6318 71.1113 18.1761 71.1113 18.624C71.1113 19.8079 70.0871 20.6404 69.0312 20.6406C67.3993 20.6406 66.7268 19.7441 66.3428 17.9521L64.4873 9.53613C64.0393 7.4882 63.3665 6.81641 62.3105 6.81641C61.1908 6.81656 60.5186 7.55251 60.5186 9.15234V20.3203H56.8389V7.55273C56.8389 5.21673 58.2793 4 60.0713 4ZM32.1738 6.7207L28.5898 10.4004C27.694 11.3603 27.1504 12.3526 27.1504 13.3125C27.1504 14.1123 27.4703 14.8481 28.2061 15.584L32.6221 20.0322L32.334 20.3203L27.918 15.8721C27.1501 15.1042 26.4459 14.752 25.71 14.752C24.7821 14.752 23.8544 15.2963 22.7666 16.416L18.958 20.3203L16.5586 17.8887L20.2383 14.1123C21.2622 13.0563 21.9023 11.9679 21.9023 10.8799C21.9022 10.144 21.5818 9.40796 20.8779 8.7041L16.7822 4.6084L17.0703 4.32031L21.166 8.41602C21.934 9.18402 22.6702 9.53613 23.4062 9.53613C24.3022 9.5361 25.1982 9.02419 26.1582 8.03223L29.7744 4.32031L32.1738 6.7207ZM37.0195 20.3203H33.3398V10.4961H37.0195V20.3203ZM46.9639 7.52051C44.2759 7.52052 42.3242 9.50432 42.3242 12.3203C42.3242 15.1043 44.2759 17.1201 46.9639 17.1201C49.6199 17.1201 51.5723 15.1043 51.5723 12.3203C51.5723 9.50431 49.6199 7.52051 46.9639 7.52051ZM4.95996 3.13672C3.96827 3.13693 3.52051 3.84046 3.52051 4.73633V9.24805C3.52051 11.264 4.22474 12.1279 5.76074 12.1279H7.23242C8.48041 12.1279 9.34473 11.712 9.34473 10.624C9.34462 9.98405 8.99188 9.12024 8.54395 8.19238L6.91211 4.89648C6.36811 3.80848 5.91996 3.13672 4.95996 3.13672ZM35.1953 4C36.6993 4 37.8515 5.12028 37.8516 6.65625C37.8516 8.22425 36.6993 9.34473 35.1953 9.34473C33.6595 9.34456 32.5078 8.22413 32.5078 6.65625C32.5078 5.1204 33.6595 4.00017 35.1953 4Z" fill="var(--fill-0, white)"/>
</svg>
