<svg width="100%" height="100%" viewBox="0 0 822.097 160" xmlns="http://www.w3.org/2000/svg" preserveAspectRatio="xMinYMid meet" role="img" aria-label="Intelligence" overflow="visible">
<foreignObject x="720.957" y="16.4219" width="115.141" height="129.719"><div xmlns="http://www.w3.org/1999/xhtml" style="backdrop-filter:blur(7.5px);clip-path:url(#bgblur_0_314_1715_clip_path);height:100%;width:100%"></div></foreignObject><path data-figma-bg-blur-radius="15" d="M779.697 131.142C770.697 131.142 762.897 129.102 756.297 125.022C749.817 120.942 744.777 115.182 741.177 107.742C737.697 100.182 735.957 91.3619 735.957 81.2819C735.957 71.2019 737.697 62.4419 741.177 55.0019C744.777 47.5619 749.757 41.8019 756.117 37.7219C762.597 33.5219 770.217 31.4219 778.977 31.4219C787.257 31.4219 794.577 33.4019 800.937 37.3619C807.297 41.2019 812.217 46.8419 815.697 54.2819C819.297 61.7219 821.097 70.7819 821.097 81.4619V85.9619H751.797C752.397 96.1619 755.097 103.842 759.897 109.002C764.817 114.162 771.417 116.742 779.697 116.742C785.937 116.742 791.037 115.302 794.997 112.422C799.077 109.422 801.897 105.522 803.457 100.722L819.657 101.982C817.137 110.502 812.337 117.522 805.257 123.042C798.297 128.442 789.777 131.142 779.697 131.142ZM751.797 72.6419H804.537C803.817 63.4019 801.117 56.6219 796.437 52.3019C791.877 47.9819 786.057 45.8219 778.977 45.8219C771.657 45.8219 765.597 48.1019 760.797 52.6619C756.117 57.1019 753.117 63.7619 751.797 72.6419Z" fill="white" fill-opacity="0.1"/>
<foreignObject x="634.451" y="16.4219" width="114.24" height="129.719"><div xmlns="http://www.w3.org/1999/xhtml" style="backdrop-filter:blur(7.5px);clip-path:url(#bgblur_1_314_1715_clip_path);height:100%;width:100%"></div></foreignObject><path data-figma-bg-blur-radius="15" d="M693.191 131.142C684.311 131.142 676.571 129.102 669.971 125.022C663.491 120.942 658.451 115.182 654.851 107.742C651.251 100.182 649.451 91.3619 649.451 81.2819C649.451 71.2019 651.251 62.4419 654.851 55.0019C658.451 47.5619 663.491 41.8019 669.971 37.7219C676.571 33.5219 684.311 31.4219 693.191 31.4219C700.511 31.4219 706.991 32.7419 712.631 35.3819C718.391 37.9019 723.071 41.6219 726.671 46.5419C730.271 51.4619 732.611 57.4619 733.691 64.5419L717.851 65.6219C716.771 59.2619 714.011 54.4019 709.571 51.0419C705.131 47.5619 699.671 45.8219 693.191 45.8219C684.431 45.8219 677.591 49.0019 672.671 55.3619C667.751 61.6019 665.291 70.2419 665.291 81.2819C665.291 92.3219 667.751 101.022 672.671 107.382C677.591 113.622 684.431 116.742 693.191 116.742C699.671 116.742 705.131 114.942 709.571 111.342C714.011 107.742 716.771 102.342 717.851 95.1419L733.691 96.2219C732.611 103.302 730.271 109.482 726.671 114.762C723.071 119.922 718.391 123.942 712.631 126.822C706.991 129.702 700.511 131.142 693.191 131.142Z" fill="white" fill-opacity="0.1"/>
<foreignObject x="548.451" y="16.4219" width="105.779" height="127.559"><div xmlns="http://www.w3.org/1999/xhtml" style="backdrop-filter:blur(7.5px);clip-path:url(#bgblur_2_314_1715_clip_path);height:100%;width:100%"></div></foreignObject><path data-figma-bg-blur-radius="15" d="M563.451 128.982V33.5819H577.311L577.851 57.8819L576.051 56.2619C577.251 50.6219 579.351 46.0019 582.351 42.4019C585.351 38.6819 588.951 35.9219 593.151 34.1219C597.471 32.3219 602.091 31.4219 607.011 31.4219C614.331 31.4219 620.331 33.0419 625.011 36.2819C629.811 39.5219 633.351 43.9019 635.631 49.4219C638.031 54.8219 639.231 60.8819 639.231 67.6019V128.982H624.111V71.9219C624.111 66.0419 623.391 61.1219 621.951 57.1619C620.631 53.0819 618.471 50.0219 615.471 47.9819C612.471 45.8219 608.571 44.7419 603.771 44.7419C596.451 44.7419 590.391 47.0819 585.591 51.7619C580.911 56.3219 578.571 63.0419 578.571 71.9219V128.982H563.451Z" fill="white" fill-opacity="0.1"/>
<foreignObject x="452.83" y="16.4219" width="115.141" height="129.719"><div xmlns="http://www.w3.org/1999/xhtml" style="backdrop-filter:blur(7.5px);clip-path:url(#bgblur_3_314_1715_clip_path);height:100%;width:100%"></div></foreignObject><path data-figma-bg-blur-radius="15" d="M511.57 131.142C502.57 131.142 494.77 129.102 488.17 125.022C481.69 120.942 476.65 115.182 473.05 107.742C469.57 100.182 467.83 91.3619 467.83 81.2819C467.83 71.2019 469.57 62.4419 473.05 55.0019C476.65 47.5619 481.63 41.8019 487.99 37.7219C494.47 33.5219 502.09 31.4219 510.85 31.4219C519.13 31.4219 526.45 33.4019 532.81 37.3619C539.17 41.2019 544.09 46.8419 547.57 54.2819C551.17 61.7219 552.97 70.7819 552.97 81.4619V85.9619H483.67C484.27 96.1619 486.97 103.842 491.77 109.002C496.69 114.162 503.29 116.742 511.57 116.742C517.81 116.742 522.91 115.302 526.87 112.422C530.95 109.422 533.77 105.522 535.33 100.722L551.53 101.982C549.01 110.502 544.21 117.522 537.13 123.042C530.17 128.442 521.65 131.142 511.57 131.142ZM483.67 72.6419H536.41C535.69 63.4019 532.99 56.6219 528.31 52.3019C523.75 47.9819 517.93 45.8219 510.85 45.8219C503.53 45.8219 497.47 48.1019 492.67 52.6619C487.99 57.1019 484.99 63.7619 483.67 72.6419Z" fill="white" fill-opacity="0.1"/>
<foreignObject x="357.713" y="16.4219" width="114.6" height="156.719"><div xmlns="http://www.w3.org/1999/xhtml" style="backdrop-filter:blur(7.5px);clip-path:url(#bgblur_4_314_1715_clip_path);height:100%;width:100%"></div></foreignObject><path data-figma-bg-blur-radius="15" d="M415.373 158.142C408.533 158.142 402.353 157.002 396.833 154.722C391.313 152.442 386.693 149.202 382.973 145.002C379.253 140.802 376.733 135.942 375.413 130.422L391.253 129.342C392.693 133.782 395.213 137.262 398.813 139.782C402.533 142.422 408.053 143.742 415.373 143.742C424.013 143.742 430.613 142.002 435.173 138.522C439.853 135.042 442.193 129.822 442.193 122.862V107.382C439.913 112.422 436.253 116.442 431.213 119.442C426.173 122.442 420.533 123.942 414.293 123.942C406.253 123.942 399.053 121.962 392.693 118.002C386.453 114.042 381.533 108.582 377.933 101.622C374.453 94.6619 372.713 86.6819 372.713 77.6819C372.713 68.5619 374.453 60.5819 377.933 53.7419C381.413 46.7819 386.213 41.3219 392.333 37.3619C398.573 33.4019 405.653 31.4219 413.573 31.4219C420.293 31.4219 426.293 32.9819 431.573 36.1019C436.973 39.2219 440.753 43.4219 442.913 48.7019V33.5819H457.313V122.502C457.313 129.942 455.633 136.302 452.273 141.582C448.913 146.982 444.113 151.062 437.873 153.822C431.633 156.702 424.133 158.142 415.373 158.142ZM415.013 109.542C423.173 109.542 429.713 106.722 434.633 101.082C439.553 95.3219 442.073 87.5219 442.193 77.6819C442.313 71.0819 441.233 65.4419 438.953 60.7619C436.793 55.9619 433.613 52.3019 429.413 49.7819C425.333 47.1419 420.533 45.8219 415.013 45.8219C406.613 45.8219 400.073 48.7019 395.393 54.4619C390.833 60.1019 388.553 67.8419 388.553 77.6819C388.553 87.5219 390.893 95.3219 395.573 101.082C400.373 106.722 406.853 109.542 415.013 109.542Z" fill="white" fill-opacity="0.1"/>
<foreignObject x="331.645" y="-14" width="45.8398" height="157.98"><div xmlns="http://www.w3.org/1999/xhtml" style="backdrop-filter:blur(7.5px);clip-path:url(#bgblur_5_314_1715_clip_path);height:100%;width:100%"></div></foreignObject><path data-figma-bg-blur-radius="15" d="M347.005 128.98V33.58H362.125V128.98H347.005ZM346.645 18.64V1H362.485V18.64H346.645Z" fill="white" fill-opacity="0.1"/>
<foreignObject x="295.424" y="-13.8203" width="59.3398" height="157.801"><div xmlns="http://www.w3.org/1999/xhtml" style="backdrop-filter:blur(7.5px);clip-path:url(#bgblur_6_314_1715_clip_path);height:100%;width:100%"></div></foreignObject><path data-figma-bg-blur-radius="15" d="M329.144 128.98C323.624 128.98 319.124 127.54 315.644 124.66C312.164 121.78 310.424 117.22 310.424 110.98V1.17969H325.544V109.72C325.544 111.64 326.024 113.14 326.984 114.22C328.064 115.18 329.564 115.66 331.484 115.66H339.764V128.98H329.144Z" fill="white" fill-opacity="0.1"/>
<foreignObject x="259.193" y="-13.8203" width="59.3398" height="157.801"><div xmlns="http://www.w3.org/1999/xhtml" style="backdrop-filter:blur(7.5px);clip-path:url(#bgblur_7_314_1715_clip_path);height:100%;width:100%"></div></foreignObject><path data-figma-bg-blur-radius="15" d="M292.913 128.98C287.393 128.98 282.893 127.54 279.413 124.66C275.933 121.78 274.193 117.22 274.193 110.98V1.17969H289.313V109.72C289.313 111.64 289.793 113.14 290.753 114.22C291.833 115.18 293.333 115.66 295.253 115.66H303.533V128.98H292.913Z" fill="white" fill-opacity="0.1"/>
<foreignObject x="162.693" y="16.4219" width="115.141" height="129.719"><div xmlns="http://www.w3.org/1999/xhtml" style="backdrop-filter:blur(7.5px);clip-path:url(#bgblur_8_314_1715_clip_path);height:100%;width:100%"></div></foreignObject><path data-figma-bg-blur-radius="15" d="M221.433 131.142C212.433 131.142 204.633 129.102 198.033 125.022C191.553 120.942 186.513 115.182 182.913 107.742C179.433 100.182 177.693 91.3619 177.693 81.2819C177.693 71.2019 179.433 62.4419 182.913 55.0019C186.513 47.5619 191.493 41.8019 197.853 37.7219C204.333 33.5219 211.953 31.4219 220.713 31.4219C228.993 31.4219 236.313 33.4019 242.673 37.3619C249.033 41.2019 253.953 46.8419 257.433 54.2819C261.033 61.7219 262.833 70.7819 262.833 81.4619V85.9619H193.533C194.133 96.1619 196.833 103.842 201.633 109.002C206.553 114.162 213.153 116.742 221.433 116.742C227.673 116.742 232.773 115.302 236.733 112.422C240.813 109.422 243.633 105.522 245.193 100.722L261.393 101.982C258.873 110.502 254.073 117.522 246.993 123.042C240.033 128.442 231.513 131.142 221.433 131.142ZM193.533 72.6419H246.273C245.553 63.4019 242.853 56.6219 238.173 52.3019C233.613 47.9819 227.793 45.8219 220.713 45.8219C213.393 45.8219 207.333 48.1019 202.533 52.6619C197.853 57.1019 194.853 63.7619 193.533 72.6419Z" fill="white" fill-opacity="0.1"/>
<foreignObject x="106.998" y="-3.73828" width="84.5391" height="147.719"><div xmlns="http://www.w3.org/1999/xhtml" style="backdrop-filter:blur(7.5px);clip-path:url(#bgblur_9_314_1715_clip_path);height:100%;width:100%"></div></foreignObject><path data-figma-bg-blur-radius="15" d="M161.418 128.982C152.778 128.982 146.358 127.002 142.158 123.042C138.078 119.082 136.038 112.902 136.038 104.502V11.2617H151.158V104.142C151.158 108.462 152.118 111.462 154.038 113.142C155.958 114.822 158.898 115.662 162.858 115.662H176.538V128.982H161.418ZM121.998 46.9017V33.5817H176.538V46.9017H121.998Z" fill="white" fill-opacity="0.1"/>
<foreignObject x="24.1152" y="16.4219" width="105.779" height="127.559"><div xmlns="http://www.w3.org/1999/xhtml" style="backdrop-filter:blur(7.5px);clip-path:url(#bgblur_10_314_1715_clip_path);height:100%;width:100%"></div></foreignObject><path data-figma-bg-blur-radius="15" d="M39.1152 128.982V33.5819H52.9752L53.5152 57.8819L51.7152 56.2619C52.9152 50.6219 55.0152 46.0019 58.0152 42.4019C61.0152 38.6819 64.6152 35.9219 68.8152 34.1219C73.1352 32.3219 77.7552 31.4219 82.6752 31.4219C89.9952 31.4219 95.9952 33.0419 100.675 36.2819C105.475 39.5219 109.015 43.9019 111.295 49.4219C113.695 54.8219 114.895 60.8819 114.895 67.6019V128.982H99.7752V71.9219C99.7752 66.0419 99.0552 61.1219 97.6152 57.1619C96.2952 53.0819 94.1352 50.0219 91.1352 47.9819C88.1352 45.8219 84.2352 44.7419 79.4352 44.7419C72.1152 44.7419 66.0552 47.0819 61.2552 51.7619C56.5752 56.3219 54.2352 63.0419 54.2352 71.9219V128.982H39.1152Z" fill="white" fill-opacity="0.1"/>
<foreignObject x="-13.998" y="-13.8203" width="45.4805" height="157.801"><div xmlns="http://www.w3.org/1999/xhtml" style="backdrop-filter:blur(7.5px);clip-path:url(#bgblur_11_314_1715_clip_path);height:100%;width:100%"></div></foreignObject><path data-figma-bg-blur-radius="15" d="M1.00195 128.98V1.17969H16.482V128.98H1.00195Z" fill="white" fill-opacity="0.1"/>
<foreignObject x="719.957" y="15.4219" width="117.141" height="131.719"><div xmlns="http://www.w3.org/1999/xhtml" style="backdrop-filter:blur(7.5px);clip-path:url(#bgblur_12_314_1715_clip_path);height:100%;width:100%"></div></foreignObject><path data-figma-bg-blur-radius="15" d="M734.957 81.2812C734.957 71.0876 736.717 62.1773 740.271 54.5781L740.277 54.5654C743.949 46.9772 749.046 41.0704 755.573 36.8818L756.201 36.4834C762.726 32.4315 770.33 30.4219 778.978 30.4219C787.424 30.4219 794.931 32.4438 801.466 36.5127C808.004 40.4635 813.044 46.2563 816.597 53.8457C820.279 61.4552 822.097 70.6735 822.097 81.4619V86.9619H752.867C753.579 96.4886 756.204 103.558 760.621 108.312C765.322 113.241 771.643 115.741 779.697 115.741V116.741L778.926 116.733C771.262 116.582 765.074 114.164 760.363 109.478L759.897 109.001C755.098 103.841 752.397 96.1616 751.797 85.9619H821.097V81.4619C821.097 70.7819 819.297 61.7213 815.697 54.2812C812.326 47.0738 807.603 41.5555 801.529 37.7266L800.938 37.3613C794.776 33.5251 787.714 31.5467 779.751 31.4268L778.978 31.4219C770.218 31.4219 762.597 33.5217 756.117 37.7217L755.525 38.1084C749.448 42.1626 744.664 47.7934 741.177 55.001C737.697 62.4409 735.957 71.2013 735.957 81.2812C735.957 91.3611 737.697 100.181 741.177 107.741C744.777 115.181 749.817 120.941 756.297 125.021C762.691 128.974 770.211 131.012 778.856 131.136L779.697 131.142C789.777 131.142 798.297 128.441 805.257 123.041C812.337 117.521 817.137 110.501 819.657 101.981L803.457 100.722C801.897 105.522 799.077 109.422 794.997 112.422C791.037 115.302 785.937 116.741 779.697 116.741V115.741C785.784 115.741 790.662 114.338 794.409 111.612C798.319 108.736 801.011 105.011 802.506 100.412L802.749 99.6631L820.967 101.08L820.616 102.265C818.036 110.987 813.115 118.183 805.872 123.83L805.87 123.831C798.71 129.386 789.966 132.142 779.697 132.142C770.828 132.142 763.053 130.192 756.41 126.259L755.771 125.872L755.765 125.868C749.321 121.811 744.276 116.139 740.626 108.884L740.277 108.177L740.272 108.168L740.269 108.159C736.717 100.443 734.957 91.4755 734.957 81.2812ZM779.637 45.8281C786.419 45.9588 792.02 48.1167 796.438 52.3018C801.117 56.6218 803.817 63.4018 804.537 72.6416H751.797C753.117 63.7616 756.117 57.1011 760.797 52.6611C765.597 48.1012 771.658 45.8213 778.978 45.8213L779.637 45.8281ZM778.978 46.8213C771.884 46.8213 766.08 49.0226 761.486 53.3867C757.219 57.4353 754.35 63.4806 752.97 71.6416H803.444C802.615 63.1027 800.008 56.9581 795.759 53.0361L795.749 53.0273C791.399 48.9063 785.837 46.8214 778.978 46.8213Z" fill="white" fill-opacity="0.7"/>
<foreignObject x="633.451" y="15.4219" width="116.393" height="131.719"><div xmlns="http://www.w3.org/1999/xhtml" style="backdrop-filter:blur(7.5px);clip-path:url(#bgblur_13_314_1715_clip_path);height:100%;width:100%"></div></foreignObject><path data-figma-bg-blur-radius="15" d="M648.451 81.2812C648.451 71.083 650.273 62.1677 653.951 54.5654C657.626 46.9709 662.788 41.0626 669.438 36.875C676.219 32.5614 684.149 30.4219 693.191 30.4219C700.623 30.4219 707.244 31.76 713.032 34.4648C718.764 36.9724 723.468 40.6458 727.127 45.4795L727.479 45.9512C731.189 51.0219 733.58 57.1795 734.68 64.3906L734.844 65.4648L717.017 66.6807L716.865 65.7891C715.853 59.8297 713.337 55.3112 709.357 52.1416L708.968 51.8389L708.961 51.834L708.954 51.8281C704.716 48.5064 699.482 46.8213 693.191 46.8213C684.709 46.8213 678.174 49.8826 673.462 55.9736L673.457 55.9805L672.671 55.3613C677.591 49.0013 684.431 45.8213 693.191 45.8213L693.796 45.8262C700.011 45.9315 705.27 47.6699 709.571 51.041C713.872 54.296 716.597 58.959 717.745 65.0293L717.852 65.6211L733.691 64.541C732.611 57.4612 730.271 51.4609 726.671 46.541C723.071 41.6212 718.391 37.9018 712.631 35.3818C707.167 32.8244 700.915 31.5057 693.875 31.4258L693.191 31.4219C684.311 31.4219 676.572 33.5218 669.972 37.7217C663.492 41.8016 658.452 47.5612 654.852 55.001L654.519 55.7031C651.14 62.9904 649.451 71.5165 649.451 81.2812C649.451 91.3612 651.252 100.181 654.852 107.741C658.452 115.181 663.492 120.941 669.972 125.021C676.365 128.974 683.829 131.012 692.362 131.136L693.191 131.142C700.511 131.142 706.991 129.701 712.631 126.821C718.391 123.941 723.071 119.922 726.671 114.762C730.271 109.482 732.611 103.302 733.691 96.2217L717.852 95.1416C716.772 102.342 714.011 107.742 709.571 111.342L709.152 111.674C704.789 115.052 699.469 116.741 693.191 116.741V115.741C699.474 115.741 704.703 114.001 708.941 110.564C713.139 107.161 715.809 102.016 716.862 94.9932L716.999 94.0811L734.844 95.2979L734.68 96.3721C733.58 103.582 731.191 109.907 727.497 115.325L727.491 115.334C723.795 120.632 718.987 124.758 713.085 127.711L713.086 127.712C707.285 130.674 700.645 132.142 693.191 132.142C684.435 132.142 676.721 130.191 670.084 126.259L669.445 125.872L669.438 125.868C662.995 121.811 657.95 116.139 654.3 108.884L653.951 108.177L653.948 108.171C650.273 100.452 648.451 91.4799 648.451 81.2812ZM665.291 81.2812C665.291 70.2414 667.751 61.6013 672.671 55.3613L673.457 55.9805C668.722 61.9866 666.291 70.38 666.291 81.2812C666.291 92.1812 668.72 100.64 673.462 106.77C678.171 112.738 684.705 115.741 693.191 115.741V116.741L692.376 116.732C684.276 116.55 677.863 113.625 673.138 107.957L672.671 107.382C667.751 101.022 665.291 92.3213 665.291 81.2812Z" fill="white" fill-opacity="0.7"/>
<foreignObject x="547.451" y="15.4219" width="107.779" height="129.559"><div xmlns="http://www.w3.org/1999/xhtml" style="backdrop-filter:blur(7.5px);clip-path:url(#bgblur_14_314_1715_clip_path);height:100%;width:100%"></div></foreignObject><path data-figma-bg-blur-radius="15" d="M562.451 32.5811H578.289L578.591 46.1934C579.462 44.5899 580.455 43.1157 581.572 41.7734C584.67 37.9325 588.4 35.0694 592.757 33.2021L592.767 33.1982C597.215 31.345 601.966 30.4219 607.011 30.4219C614.471 30.4219 620.683 32.0719 625.57 35.4521C630.531 38.8009 634.191 43.3315 636.544 49.0156C639.008 54.5598 640.23 60.761 640.23 67.6016V129.981H623.11V71.9219C623.11 66.1158 622.399 61.3195 621.011 57.5029L620.999 57.4697C619.814 53.8056 617.945 51.0633 615.422 49.1748L614.908 48.8086L614.887 48.793C612.101 46.7875 608.423 45.7412 603.771 45.7412C596.907 45.7413 591.248 47.8582 586.724 52.0635L586.289 52.4775C581.864 56.7895 579.57 63.2118 579.57 71.9219V129.981H562.451V32.5811ZM563.451 128.981H578.57V71.9219C578.57 63.3193 580.767 56.7436 585.159 52.1953L585.591 51.7617C590.391 47.0818 596.451 44.7413 603.771 44.7412C608.57 44.7412 612.471 45.8215 615.471 47.9814C618.471 50.0214 620.631 53.0812 621.951 57.1611C623.391 61.1211 624.11 66.0419 624.11 71.9219V128.981H639.23V67.6016C639.23 60.8817 638.031 54.8218 635.631 49.4219C633.351 43.9019 629.811 39.5213 625.011 36.2812C620.477 33.1426 614.705 31.5239 607.693 31.4258L607.011 31.4219C602.091 31.4219 597.47 32.3211 593.15 34.1211C588.95 35.9211 585.351 38.6814 582.351 42.4014C580.425 44.712 578.872 47.4437 577.688 50.5947L577.311 33.5811H563.451V128.981Z" fill="white" fill-opacity="0.7"/>
<foreignObject x="451.83" y="15.4219" width="117.139" height="131.719"><div xmlns="http://www.w3.org/1999/xhtml" style="backdrop-filter:blur(7.5px);clip-path:url(#bgblur_15_314_1715_clip_path);height:100%;width:100%"></div></foreignObject><path data-figma-bg-blur-radius="15" d="M466.83 81.2812C466.83 71.0876 468.59 62.1773 472.145 54.5781L472.15 54.5654C475.822 46.9772 480.919 41.0704 487.446 36.8818L488.074 36.4834C494.599 32.4315 502.203 30.4219 510.851 30.4219C519.297 30.4219 526.804 32.4438 533.339 36.5127C539.877 40.4635 544.917 46.2563 548.47 53.8457C552.152 61.4552 553.97 70.6735 553.97 81.4619V86.9619H484.74C485.452 96.4886 488.077 103.558 492.494 108.312C497.195 113.241 503.516 115.741 511.57 115.741V116.741L510.799 116.733C503.135 116.582 496.947 114.164 492.236 109.478L491.771 109.001C486.971 103.841 484.27 96.1616 483.67 85.9619H552.97V81.4619C552.97 70.7819 551.17 61.7213 547.57 54.2812C544.199 47.0738 539.476 41.5555 533.402 37.7266L532.811 37.3613C526.649 33.5251 519.587 31.5467 511.624 31.4268L510.851 31.4219C502.091 31.4219 494.47 33.5217 487.99 37.7217L487.398 38.1084C481.321 42.1626 476.537 47.7934 473.05 55.001C469.57 62.4409 467.83 71.2013 467.83 81.2812C467.83 91.3611 469.57 100.181 473.05 107.741C476.65 115.181 481.69 120.941 488.17 125.021C494.564 128.974 502.084 131.012 510.729 131.136L511.57 131.142C521.65 131.142 530.17 128.441 537.13 123.041C544.21 117.521 549.01 110.501 551.53 101.981L535.33 100.722C533.77 105.522 530.95 109.422 526.87 112.422C522.91 115.302 517.81 116.741 511.57 116.741V115.741C517.657 115.741 522.535 114.338 526.282 111.612C530.192 108.736 532.884 105.011 534.379 100.412L534.622 99.6631L552.84 101.08L552.489 102.265C549.909 110.987 544.988 118.183 537.745 123.83L537.743 123.831C530.583 129.386 521.839 132.142 511.57 132.142C502.701 132.142 494.926 130.192 488.283 126.259L487.645 125.872L487.638 125.868C481.194 121.811 476.149 116.139 472.499 108.884L472.15 108.177L472.146 108.168L472.142 108.159C468.59 100.443 466.83 91.4755 466.83 81.2812ZM511.51 45.8281C518.292 45.9588 523.893 48.1167 528.311 52.3018C532.99 56.6218 535.69 63.4018 536.41 72.6416H483.67C484.99 63.7616 487.99 57.1011 492.67 52.6611C497.47 48.1012 503.531 45.8213 510.851 45.8213L511.51 45.8281ZM510.851 46.8213C503.758 46.8213 497.953 49.0226 493.359 53.3867C489.092 57.4353 486.223 63.4806 484.843 71.6416H535.317C534.488 63.1027 531.881 56.9581 527.632 53.0361L527.622 53.0273C523.272 48.9063 517.71 46.8214 510.851 46.8213Z" fill="white" fill-opacity="0.7"/>
<foreignObject x="356.713" y="15.4219" width="116.6" height="158.719"><div xmlns="http://www.w3.org/1999/xhtml" style="backdrop-filter:blur(7.5px);clip-path:url(#bgblur_16_314_1715_clip_path);height:100%;width:100%"></div></foreignObject><path data-figma-bg-blur-radius="15" d="M457.312 122.501V33.5811H442.913V48.7012C440.821 43.5863 437.207 39.4853 432.074 36.3975L431.573 36.1016C426.458 33.0791 420.667 31.5203 414.201 31.4258L413.573 31.4219C405.653 31.4219 398.573 33.4014 392.333 37.3613C386.213 41.3213 381.413 46.7812 377.933 53.7412C374.453 60.5812 372.713 68.5616 372.713 77.6816L372.718 78.5225C372.823 87.1792 374.562 94.8788 377.933 101.621C381.533 108.581 386.453 114.041 392.693 118.001C399.053 121.961 406.253 123.941 414.293 123.941C420.533 123.941 426.173 122.441 431.213 119.441C436.253 116.441 439.913 112.422 442.193 107.382V122.861L442.187 123.509C442.045 130.146 439.707 135.15 435.173 138.521C430.613 142.001 424.013 143.741 415.373 143.741V142.741C423.899 142.741 430.249 141.021 434.566 137.727L434.576 137.719C438.952 134.465 441.193 129.574 441.193 122.861V111.312C438.866 114.934 435.705 117.931 431.725 120.301C426.52 123.399 420.701 124.941 414.293 124.941C406.337 124.941 399.157 123.041 392.779 119.226L392.164 118.851L392.157 118.846C385.959 114.912 381.037 109.537 377.394 102.743L377.045 102.081L377.038 102.068C373.479 94.9494 371.713 86.8123 371.713 77.6816C371.713 68.4363 373.476 60.2972 377.038 53.2939C380.592 46.1854 385.51 40.5851 391.79 36.5215L391.797 36.5166C398.209 32.4476 405.478 30.4219 413.573 30.4219C420.454 30.4219 426.634 32.0206 432.082 35.2402C436.306 37.6823 439.59 40.7816 441.913 44.5371V32.5811H458.312V122.501C458.312 130.091 456.597 136.642 453.121 142.108L453.122 142.109C449.648 147.692 444.687 151.901 438.277 154.736L438.276 154.735C431.877 157.686 424.232 159.142 415.373 159.142C408.421 159.142 402.109 157.982 396.451 155.646C390.976 153.384 386.349 150.192 382.586 146.066L382.225 145.664C378.514 141.475 375.962 136.644 374.571 131.185L374.44 130.654L374.165 129.504L391.964 128.291L392.204 129.033C393.538 133.147 395.827 136.368 399.069 138.735L399.387 138.962L399.392 138.966C402.868 141.433 408.145 142.741 415.373 142.741V143.741L414.692 143.737C407.71 143.657 402.416 142.339 398.812 139.781C395.213 137.261 392.693 133.781 391.253 129.342L375.413 130.422C376.733 135.942 379.253 140.801 382.973 145.001C386.693 149.201 391.313 152.442 396.833 154.722C402.008 156.859 407.763 157.994 414.099 158.128L415.373 158.142C423.859 158.142 431.163 156.79 437.284 154.087L437.873 153.821C444.113 151.061 448.913 146.981 452.273 141.581C455.633 136.301 457.312 129.941 457.312 122.501ZM388.553 77.6816C388.553 68.1492 390.692 60.587 394.972 54.9961L395.393 54.4619C400.073 48.702 406.613 45.8214 415.013 45.8213C420.533 45.8213 425.333 47.1413 429.413 49.7812C433.613 52.3012 436.793 55.9617 438.953 60.7617C441.233 65.4417 442.313 71.0818 442.193 77.6816C442.073 87.5215 439.553 95.3211 434.633 101.081C429.713 106.721 423.173 109.541 415.013 109.541V108.541C422.913 108.541 429.168 105.825 433.88 100.424C438.603 94.8899 441.075 87.3412 441.193 77.6689V77.6631C441.311 71.1798 440.248 65.7043 438.054 61.1992L438.047 61.1855L438.041 61.1719C435.958 56.5433 432.91 53.0457 428.898 50.6387L428.884 50.6299L428.87 50.6211C424.973 48.0995 420.367 46.8213 415.013 46.8213C406.87 46.8214 400.633 49.5969 396.17 55.0889L396.171 55.0898C391.799 60.4975 389.553 67.9892 389.553 77.6816L389.56 78.583C389.699 87.827 391.991 95.0771 396.335 100.434C400.924 105.826 407.113 108.541 415.013 108.541V109.541C406.853 109.541 400.373 106.721 395.573 101.081C391.039 95.501 388.701 88.0067 388.56 78.5977L388.553 77.6816Z" fill="white" fill-opacity="0.7"/>
<foreignObject x="330.645" y="-15" width="47.8398" height="159.98"><div xmlns="http://www.w3.org/1999/xhtml" style="backdrop-filter:blur(7.5px);clip-path:url(#bgblur_17_314_1715_clip_path);height:100%;width:100%"></div></foreignObject><path data-figma-bg-blur-radius="15" d="M347.005 33.5801V128.98H362.124V33.5801H347.005ZM346.645 1V18.6406H362.484V1H346.645ZM363.124 129.98H346.005V32.5801H363.124V129.98ZM363.484 19.6406H345.645V0H363.484V19.6406Z" fill="white" fill-opacity="0.7"/>
<foreignObject x="294.424" y="-14.8203" width="61.3398" height="159.801"><div xmlns="http://www.w3.org/1999/xhtml" style="backdrop-filter:blur(7.5px);clip-path:url(#bgblur_18_314_1715_clip_path);height:100%;width:100%"></div></foreignObject><path data-figma-bg-blur-radius="15" d="M325.543 109.72V1.17969H310.424V110.979L310.429 111.56C310.534 117.503 312.272 121.869 315.644 124.659C319.015 127.449 323.343 128.888 328.629 128.976L329.144 128.979H339.764V115.659H331.483V114.659H340.764V129.979H329.144C323.444 129.979 318.702 128.489 315.006 125.43C311.218 122.295 309.424 117.398 309.424 110.979V0.179688H326.543V109.72L326.549 110.043C326.599 111.6 327.012 112.721 327.692 113.51C328.535 114.236 329.757 114.659 331.483 114.659V115.659C329.563 115.659 328.063 115.18 326.983 114.22C326.083 113.207 325.605 111.825 325.549 110.074L325.543 109.72Z" fill="white" fill-opacity="0.7"/>
<foreignObject x="258.193" y="-14.8203" width="61.3398" height="159.801"><div xmlns="http://www.w3.org/1999/xhtml" style="backdrop-filter:blur(7.5px);clip-path:url(#bgblur_19_314_1715_clip_path);height:100%;width:100%"></div></foreignObject><path data-figma-bg-blur-radius="15" d="M289.312 109.72V1.17969H274.193V110.979L274.198 111.56C274.304 117.503 276.042 121.869 279.413 124.659C282.784 127.449 287.113 128.888 292.398 128.976L292.913 128.979H303.533V115.659H295.253V114.659H304.533V129.979H292.913C287.214 129.979 282.472 128.489 278.775 125.43C274.987 122.295 273.193 117.398 273.193 110.979V0.179688H290.312V109.72L290.318 110.043C290.368 111.6 290.782 112.721 291.462 113.51C292.304 114.236 293.526 114.659 295.253 114.659V115.659C293.333 115.659 291.833 115.18 290.753 114.22C289.853 113.207 289.375 111.825 289.318 110.074L289.312 109.72Z" fill="white" fill-opacity="0.7"/>
<foreignObject x="161.693" y="15.4219" width="117.139" height="131.719"><div xmlns="http://www.w3.org/1999/xhtml" style="backdrop-filter:blur(7.5px);clip-path:url(#bgblur_20_314_1715_clip_path);height:100%;width:100%"></div></foreignObject><path data-figma-bg-blur-radius="15" d="M176.693 81.2812C176.693 71.0876 178.453 62.1773 182.008 54.5781L182.014 54.5654C185.685 46.9772 190.782 41.0704 197.31 36.8818L197.938 36.4834C204.462 32.4315 212.067 30.4219 220.714 30.4219C229.16 30.4219 236.667 32.4438 243.202 36.5127C249.741 40.4635 254.781 46.2563 258.333 53.8457C262.015 61.4552 263.833 70.6735 263.833 81.4619V86.9619H194.604C195.315 96.4886 197.941 103.558 202.357 108.312C207.058 113.241 213.379 115.741 221.434 115.741V116.741L220.662 116.733C212.998 116.582 206.811 114.164 202.1 109.478L201.634 109.001C196.834 103.841 194.133 96.1616 193.533 85.9619H262.833V81.4619C262.833 70.7819 261.034 61.7213 257.434 54.2812C254.062 47.0738 249.34 41.5555 243.266 37.7266L242.674 37.3613C236.513 33.5251 229.45 31.5467 221.487 31.4268L220.714 31.4219C211.954 31.4219 204.334 33.5217 197.854 37.7217L197.262 38.1084C191.184 42.1626 186.401 47.7934 182.913 55.001C179.433 62.4409 177.693 71.2013 177.693 81.2812C177.693 91.3611 179.433 100.181 182.913 107.741C186.513 115.181 191.553 120.941 198.033 125.021C204.427 128.974 211.947 131.012 220.593 131.136L221.434 131.142C231.514 131.142 240.033 128.441 246.993 123.041C254.073 117.521 258.874 110.501 261.394 101.981L245.193 100.722C243.633 105.522 240.813 109.422 236.733 112.422C232.773 115.302 227.673 116.741 221.434 116.741V115.741C227.52 115.741 232.398 114.338 236.146 111.612C240.055 108.736 242.748 105.011 244.242 100.412L244.485 99.6631L262.703 101.08L262.353 102.265C259.773 110.987 254.851 118.183 247.608 123.83L247.606 123.831C240.446 129.386 231.702 132.142 221.434 132.142C212.564 132.142 204.79 130.192 198.146 126.259L197.508 125.872L197.501 125.868C191.058 121.811 186.012 116.139 182.362 108.884L182.014 108.177L182.009 108.168L182.005 108.159C178.453 100.443 176.693 91.4755 176.693 81.2812ZM221.373 45.8281C228.156 45.9588 233.756 48.1167 238.174 52.3018C242.854 56.6218 245.553 63.4018 246.273 72.6416H193.533C194.853 63.7616 197.853 57.1011 202.533 52.6611C207.333 48.1012 213.394 45.8213 220.714 45.8213L221.373 45.8281ZM220.714 46.8213C213.621 46.8213 207.816 49.0226 203.223 53.3867C198.955 57.4353 196.086 63.4806 194.706 71.6416H245.181C244.351 63.1027 241.744 56.9581 237.495 53.0361L237.485 53.0273C233.135 48.9063 227.573 46.8214 220.714 46.8213Z" fill="white" fill-opacity="0.7"/>
<foreignObject x="105.998" y="-4.73828" width="86.541" height="149.719"><div xmlns="http://www.w3.org/1999/xhtml" style="backdrop-filter:blur(7.5px);clip-path:url(#bgblur_21_314_1715_clip_path);height:100%;width:100%"></div></foreignObject><path data-figma-bg-blur-radius="15" d="M151.157 104.142V46.9014H176.538V33.5811H151.157V11.2617H136.038V33.5811H121.998V46.9014H136.038V104.501L136.044 105.282C136.167 113.285 138.205 119.205 142.157 123.041C146.226 126.877 152.379 128.856 160.614 128.976L161.418 128.981H176.538V115.661H162.857V114.661H177.538V129.981H161.418C152.921 129.981 146.353 128.098 141.896 124.157L141.472 123.769L141.467 123.764L141.461 123.759C137.111 119.536 135.038 113.042 135.038 104.501V47.9014H120.998V32.5811H135.038V10.2617H152.157V32.5811H177.538V47.9014H152.157V104.142L152.169 104.915C152.275 108.563 153.143 110.922 154.549 112.255L154.696 112.389C156.356 113.841 159.012 114.661 162.857 114.661V115.661C159.021 115.661 156.142 114.873 154.221 113.297L154.038 113.142C152.238 111.567 151.281 108.831 151.169 104.936L151.157 104.142Z" fill="white" fill-opacity="0.7"/>
<foreignObject x="23.1152" y="15.4219" width="107.779" height="129.559"><div xmlns="http://www.w3.org/1999/xhtml" style="backdrop-filter:blur(7.5px);clip-path:url(#bgblur_22_314_1715_clip_path);height:100%;width:100%"></div></foreignObject><path data-figma-bg-blur-radius="15" d="M38.1152 32.5811H53.9531L54.2549 46.1934C55.1262 44.5899 56.1192 43.1157 57.2363 41.7734C60.3339 37.9325 64.064 35.0694 68.4209 33.2021L68.4307 33.1982C72.8786 31.345 77.6298 30.4219 82.6748 30.4219C90.1352 30.4219 96.3466 32.0719 101.234 35.4521C106.195 38.8009 109.855 43.3315 112.208 49.0156C114.672 54.5598 115.895 60.761 115.895 67.6016V129.981H98.7744V71.9219C98.7744 66.1158 98.0626 61.3195 96.6748 57.5029L96.6631 57.4697C95.4776 53.8056 93.609 51.0633 91.0859 49.1748L90.5723 48.8086L90.5508 48.793C87.7655 46.7875 84.0873 45.7412 79.4346 45.7412C72.5709 45.7413 66.9123 47.8582 62.3877 52.0635L61.9531 52.4775C57.5277 56.7895 55.2344 63.2118 55.2344 71.9219V129.981H38.1152V32.5811ZM39.1152 128.981H54.2344V71.9219C54.2344 63.3193 56.4311 56.7436 60.8232 52.1953L61.2549 51.7617C66.0548 47.0818 72.1147 44.7413 79.4346 44.7412C84.2345 44.7412 88.1348 45.8215 91.1348 47.9814C94.1347 50.0214 96.2952 53.0812 97.6152 57.1611C99.0552 61.1211 99.7744 66.0419 99.7744 71.9219V128.981H114.895V67.6016C114.895 60.8817 113.695 54.8218 111.295 49.4219C109.015 43.9019 105.475 39.5213 100.675 36.2812C96.1411 33.1426 90.3686 31.5239 83.3574 31.4258L82.6748 31.4219C77.7548 31.4219 73.1344 32.3211 68.8145 34.1211C64.6145 35.9211 61.0146 38.6814 58.0146 42.4014C56.0891 44.712 54.5365 47.4437 53.3525 50.5947L52.9746 33.5811H39.1152V128.981Z" fill="white" fill-opacity="0.7"/>
<foreignObject x="-15" y="-14.8203" width="47.4805" height="159.801"><div xmlns="http://www.w3.org/1999/xhtml" style="backdrop-filter:blur(7.5px);clip-path:url(#bgblur_23_314_1715_clip_path);height:100%;width:100%"></div></foreignObject><path data-figma-bg-blur-radius="15" d="M1 1.17969V128.979H16.4805V1.17969H1ZM17.4805 129.979H0V0.179688H17.4805V129.979Z" fill="white" fill-opacity="0.7"/>
<defs>
<clipPath id="bgblur_0_314_1715_clip_path" transform="translate(-720.957 -16.4219)"><path d="M779.697 131.142C770.697 131.142 762.897 129.102 756.297 125.022C749.817 120.942 744.777 115.182 741.177 107.742C737.697 100.182 735.957 91.3619 735.957 81.2819C735.957 71.2019 737.697 62.4419 741.177 55.0019C744.777 47.5619 749.757 41.8019 756.117 37.7219C762.597 33.5219 770.217 31.4219 778.977 31.4219C787.257 31.4219 794.577 33.4019 800.937 37.3619C807.297 41.2019 812.217 46.8419 815.697 54.2819C819.297 61.7219 821.097 70.7819 821.097 81.4619V85.9619H751.797C752.397 96.1619 755.097 103.842 759.897 109.002C764.817 114.162 771.417 116.742 779.697 116.742C785.937 116.742 791.037 115.302 794.997 112.422C799.077 109.422 801.897 105.522 803.457 100.722L819.657 101.982C817.137 110.502 812.337 117.522 805.257 123.042C798.297 128.442 789.777 131.142 779.697 131.142ZM751.797 72.6419H804.537C803.817 63.4019 801.117 56.6219 796.437 52.3019C791.877 47.9819 786.057 45.8219 778.977 45.8219C771.657 45.8219 765.597 48.1019 760.797 52.6619C756.117 57.1019 753.117 63.7619 751.797 72.6419Z"/></clipPath>
<clipPath id="bgblur_1_314_1715_clip_path" transform="translate(-634.451 -16.4219)"><path d="M693.191 131.142C684.311 131.142 676.571 129.102 669.971 125.022C663.491 120.942 658.451 115.182 654.851 107.742C651.251 100.182 649.451 91.3619 649.451 81.2819C649.451 71.2019 651.251 62.4419 654.851 55.0019C658.451 47.5619 663.491 41.8019 669.971 37.7219C676.571 33.5219 684.311 31.4219 693.191 31.4219C700.511 31.4219 706.991 32.7419 712.631 35.3819C718.391 37.9019 723.071 41.6219 726.671 46.5419C730.271 51.4619 732.611 57.4619 733.691 64.5419L717.851 65.6219C716.771 59.2619 714.011 54.4019 709.571 51.0419C705.131 47.5619 699.671 45.8219 693.191 45.8219C684.431 45.8219 677.591 49.0019 672.671 55.3619C667.751 61.6019 665.291 70.2419 665.291 81.2819C665.291 92.3219 667.751 101.022 672.671 107.382C677.591 113.622 684.431 116.742 693.191 116.742C699.671 116.742 705.131 114.942 709.571 111.342C714.011 107.742 716.771 102.342 717.851 95.1419L733.691 96.2219C732.611 103.302 730.271 109.482 726.671 114.762C723.071 119.922 718.391 123.942 712.631 126.822C706.991 129.702 700.511 131.142 693.191 131.142Z"/></clipPath>
<clipPath id="bgblur_2_314_1715_clip_path" transform="translate(-548.451 -16.4219)"><path d="M563.451 128.982V33.5819H577.311L577.851 57.8819L576.051 56.2619C577.251 50.6219 579.351 46.0019 582.351 42.4019C585.351 38.6819 588.951 35.9219 593.151 34.1219C597.471 32.3219 602.091 31.4219 607.011 31.4219C614.331 31.4219 620.331 33.0419 625.011 36.2819C629.811 39.5219 633.351 43.9019 635.631 49.4219C638.031 54.8219 639.231 60.8819 639.231 67.6019V128.982H624.111V71.9219C624.111 66.0419 623.391 61.1219 621.951 57.1619C620.631 53.0819 618.471 50.0219 615.471 47.9819C612.471 45.8219 608.571 44.7419 603.771 44.7419C596.451 44.7419 590.391 47.0819 585.591 51.7619C580.911 56.3219 578.571 63.0419 578.571 71.9219V128.982H563.451Z"/></clipPath>
<clipPath id="bgblur_3_314_1715_clip_path" transform="translate(-452.83 -16.4219)"><path d="M511.57 131.142C502.57 131.142 494.77 129.102 488.17 125.022C481.69 120.942 476.65 115.182 473.05 107.742C469.57 100.182 467.83 91.3619 467.83 81.2819C467.83 71.2019 469.57 62.4419 473.05 55.0019C476.65 47.5619 481.63 41.8019 487.99 37.7219C494.47 33.5219 502.09 31.4219 510.85 31.4219C519.13 31.4219 526.45 33.4019 532.81 37.3619C539.17 41.2019 544.09 46.8419 547.57 54.2819C551.17 61.7219 552.97 70.7819 552.97 81.4619V85.9619H483.67C484.27 96.1619 486.97 103.842 491.77 109.002C496.69 114.162 503.29 116.742 511.57 116.742C517.81 116.742 522.91 115.302 526.87 112.422C530.95 109.422 533.77 105.522 535.33 100.722L551.53 101.982C549.01 110.502 544.21 117.522 537.13 123.042C530.17 128.442 521.65 131.142 511.57 131.142ZM483.67 72.6419H536.41C535.69 63.4019 532.99 56.6219 528.31 52.3019C523.75 47.9819 517.93 45.8219 510.85 45.8219C503.53 45.8219 497.47 48.1019 492.67 52.6619C487.99 57.1019 484.99 63.7619 483.67 72.6419Z"/></clipPath>
<clipPath id="bgblur_4_314_1715_clip_path" transform="translate(-357.713 -16.4219)"><path d="M415.373 158.142C408.533 158.142 402.353 157.002 396.833 154.722C391.313 152.442 386.693 149.202 382.973 145.002C379.253 140.802 376.733 135.942 375.413 130.422L391.253 129.342C392.693 133.782 395.213 137.262 398.813 139.782C402.533 142.422 408.053 143.742 415.373 143.742C424.013 143.742 430.613 142.002 435.173 138.522C439.853 135.042 442.193 129.822 442.193 122.862V107.382C439.913 112.422 436.253 116.442 431.213 119.442C426.173 122.442 420.533 123.942 414.293 123.942C406.253 123.942 399.053 121.962 392.693 118.002C386.453 114.042 381.533 108.582 377.933 101.622C374.453 94.6619 372.713 86.6819 372.713 77.6819C372.713 68.5619 374.453 60.5819 377.933 53.7419C381.413 46.7819 386.213 41.3219 392.333 37.3619C398.573 33.4019 405.653 31.4219 413.573 31.4219C420.293 31.4219 426.293 32.9819 431.573 36.1019C436.973 39.2219 440.753 43.4219 442.913 48.7019V33.5819H457.313V122.502C457.313 129.942 455.633 136.302 452.273 141.582C448.913 146.982 444.113 151.062 437.873 153.822C431.633 156.702 424.133 158.142 415.373 158.142ZM415.013 109.542C423.173 109.542 429.713 106.722 434.633 101.082C439.553 95.3219 442.073 87.5219 442.193 77.6819C442.313 71.0819 441.233 65.4419 438.953 60.7619C436.793 55.9619 433.613 52.3019 429.413 49.7819C425.333 47.1419 420.533 45.8219 415.013 45.8219C406.613 45.8219 400.073 48.7019 395.393 54.4619C390.833 60.1019 388.553 67.8419 388.553 77.6819C388.553 87.5219 390.893 95.3219 395.573 101.082C400.373 106.722 406.853 109.542 415.013 109.542Z"/></clipPath>
<clipPath id="bgblur_5_314_1715_clip_path" transform="translate(-331.645 14)"><path d="M347.005 128.98V33.58H362.125V128.98H347.005ZM346.645 18.64V1H362.485V18.64H346.645Z"/></clipPath>
<clipPath id="bgblur_6_314_1715_clip_path" transform="translate(-295.424 13.8203)"><path d="M329.144 128.98C323.624 128.98 319.124 127.54 315.644 124.66C312.164 121.78 310.424 117.22 310.424 110.98V1.17969H325.544V109.72C325.544 111.64 326.024 113.14 326.984 114.22C328.064 115.18 329.564 115.66 331.484 115.66H339.764V128.98H329.144Z"/></clipPath>
<clipPath id="bgblur_7_314_1715_clip_path" transform="translate(-259.193 13.8203)"><path d="M292.913 128.98C287.393 128.98 282.893 127.54 279.413 124.66C275.933 121.78 274.193 117.22 274.193 110.98V1.17969H289.313V109.72C289.313 111.64 289.793 113.14 290.753 114.22C291.833 115.18 293.333 115.66 295.253 115.66H303.533V128.98H292.913Z"/></clipPath>
<clipPath id="bgblur_8_314_1715_clip_path" transform="translate(-162.693 -16.4219)"><path d="M221.433 131.142C212.433 131.142 204.633 129.102 198.033 125.022C191.553 120.942 186.513 115.182 182.913 107.742C179.433 100.182 177.693 91.3619 177.693 81.2819C177.693 71.2019 179.433 62.4419 182.913 55.0019C186.513 47.5619 191.493 41.8019 197.853 37.7219C204.333 33.5219 211.953 31.4219 220.713 31.4219C228.993 31.4219 236.313 33.4019 242.673 37.3619C249.033 41.2019 253.953 46.8419 257.433 54.2819C261.033 61.7219 262.833 70.7819 262.833 81.4619V85.9619H193.533C194.133 96.1619 196.833 103.842 201.633 109.002C206.553 114.162 213.153 116.742 221.433 116.742C227.673 116.742 232.773 115.302 236.733 112.422C240.813 109.422 243.633 105.522 245.193 100.722L261.393 101.982C258.873 110.502 254.073 117.522 246.993 123.042C240.033 128.442 231.513 131.142 221.433 131.142ZM193.533 72.6419H246.273C245.553 63.4019 242.853 56.6219 238.173 52.3019C233.613 47.9819 227.793 45.8219 220.713 45.8219C213.393 45.8219 207.333 48.1019 202.533 52.6619C197.853 57.1019 194.853 63.7619 193.533 72.6419Z"/></clipPath>
<clipPath id="bgblur_9_314_1715_clip_path" transform="translate(-106.998 3.73828)"><path d="M161.418 128.982C152.778 128.982 146.358 127.002 142.158 123.042C138.078 119.082 136.038 112.902 136.038 104.502V11.2617H151.158V104.142C151.158 108.462 152.118 111.462 154.038 113.142C155.958 114.822 158.898 115.662 162.858 115.662H176.538V128.982H161.418ZM121.998 46.9017V33.5817H176.538V46.9017H121.998Z"/></clipPath>
<clipPath id="bgblur_10_314_1715_clip_path" transform="translate(-24.1152 -16.4219)"><path d="M39.1152 128.982V33.5819H52.9752L53.5152 57.8819L51.7152 56.2619C52.9152 50.6219 55.0152 46.0019 58.0152 42.4019C61.0152 38.6819 64.6152 35.9219 68.8152 34.1219C73.1352 32.3219 77.7552 31.4219 82.6752 31.4219C89.9952 31.4219 95.9952 33.0419 100.675 36.2819C105.475 39.5219 109.015 43.9019 111.295 49.4219C113.695 54.8219 114.895 60.8819 114.895 67.6019V128.982H99.7752V71.9219C99.7752 66.0419 99.0552 61.1219 97.6152 57.1619C96.2952 53.0819 94.1352 50.0219 91.1352 47.9819C88.1352 45.8219 84.2352 44.7419 79.4352 44.7419C72.1152 44.7419 66.0552 47.0819 61.2552 51.7619C56.5752 56.3219 54.2352 63.0419 54.2352 71.9219V128.982H39.1152Z"/></clipPath>
<clipPath id="bgblur_11_314_1715_clip_path" transform="translate(13.998 13.8203)"><path d="M1.00195 128.98V1.17969H16.482V128.98H1.00195Z"/></clipPath>
<clipPath id="bgblur_12_314_1715_clip_path" transform="translate(-719.957 -15.4219)"><path d="M734.957 81.2812C734.957 71.0876 736.717 62.1773 740.271 54.5781L740.277 54.5654C743.949 46.9772 749.046 41.0704 755.573 36.8818L756.201 36.4834C762.726 32.4315 770.33 30.4219 778.978 30.4219C787.424 30.4219 794.931 32.4438 801.466 36.5127C808.004 40.4635 813.044 46.2563 816.597 53.8457C820.279 61.4552 822.097 70.6735 822.097 81.4619V86.9619H752.867C753.579 96.4886 756.204 103.558 760.621 108.312C765.322 113.241 771.643 115.741 779.697 115.741V116.741L778.926 116.733C771.262 116.582 765.074 114.164 760.363 109.478L759.897 109.001C755.098 103.841 752.397 96.1616 751.797 85.9619H821.097V81.4619C821.097 70.7819 819.297 61.7213 815.697 54.2812C812.326 47.0738 807.603 41.5555 801.529 37.7266L800.938 37.3613C794.776 33.5251 787.714 31.5467 779.751 31.4268L778.978 31.4219C770.218 31.4219 762.597 33.5217 756.117 37.7217L755.525 38.1084C749.448 42.1626 744.664 47.7934 741.177 55.001C737.697 62.4409 735.957 71.2013 735.957 81.2812C735.957 91.3611 737.697 100.181 741.177 107.741C744.777 115.181 749.817 120.941 756.297 125.021C762.691 128.974 770.211 131.012 778.856 131.136L779.697 131.142C789.777 131.142 798.297 128.441 805.257 123.041C812.337 117.521 817.137 110.501 819.657 101.981L803.457 100.722C801.897 105.522 799.077 109.422 794.997 112.422C791.037 115.302 785.937 116.741 779.697 116.741V115.741C785.784 115.741 790.662 114.338 794.409 111.612C798.319 108.736 801.011 105.011 802.506 100.412L802.749 99.6631L820.967 101.08L820.616 102.265C818.036 110.987 813.115 118.183 805.872 123.83L805.87 123.831C798.71 129.386 789.966 132.142 779.697 132.142C770.828 132.142 763.053 130.192 756.41 126.259L755.771 125.872L755.765 125.868C749.321 121.811 744.276 116.139 740.626 108.884L740.277 108.177L740.272 108.168L740.269 108.159C736.717 100.443 734.957 91.4755 734.957 81.2812ZM779.637 45.8281C786.419 45.9588 792.02 48.1167 796.438 52.3018C801.117 56.6218 803.817 63.4018 804.537 72.6416H751.797C753.117 63.7616 756.117 57.1011 760.797 52.6611C765.597 48.1012 771.658 45.8213 778.978 45.8213L779.637 45.8281ZM778.978 46.8213C771.884 46.8213 766.08 49.0226 761.486 53.3867C757.219 57.4353 754.35 63.4806 752.97 71.6416H803.444C802.615 63.1027 800.008 56.9581 795.759 53.0361L795.749 53.0273C791.399 48.9063 785.837 46.8214 778.978 46.8213Z"/></clipPath>
<clipPath id="bgblur_13_314_1715_clip_path" transform="translate(-633.451 -15.4219)"><path d="M648.451 81.2812C648.451 71.083 650.273 62.1677 653.951 54.5654C657.626 46.9709 662.788 41.0626 669.438 36.875C676.219 32.5614 684.149 30.4219 693.191 30.4219C700.623 30.4219 707.244 31.76 713.032 34.4648C718.764 36.9724 723.468 40.6458 727.127 45.4795L727.479 45.9512C731.189 51.0219 733.58 57.1795 734.68 64.3906L734.844 65.4648L717.017 66.6807L716.865 65.7891C715.853 59.8297 713.337 55.3112 709.357 52.1416L708.968 51.8389L708.961 51.834L708.954 51.8281C704.716 48.5064 699.482 46.8213 693.191 46.8213C684.709 46.8213 678.174 49.8826 673.462 55.9736L673.457 55.9805L672.671 55.3613C677.591 49.0013 684.431 45.8213 693.191 45.8213L693.796 45.8262C700.011 45.9315 705.27 47.6699 709.571 51.041C713.872 54.296 716.597 58.959 717.745 65.0293L717.852 65.6211L733.691 64.541C732.611 57.4612 730.271 51.4609 726.671 46.541C723.071 41.6212 718.391 37.9018 712.631 35.3818C707.167 32.8244 700.915 31.5057 693.875 31.4258L693.191 31.4219C684.311 31.4219 676.572 33.5218 669.972 37.7217C663.492 41.8016 658.452 47.5612 654.852 55.001L654.519 55.7031C651.14 62.9904 649.451 71.5165 649.451 81.2812C649.451 91.3612 651.252 100.181 654.852 107.741C658.452 115.181 663.492 120.941 669.972 125.021C676.365 128.974 683.829 131.012 692.362 131.136L693.191 131.142C700.511 131.142 706.991 129.701 712.631 126.821C718.391 123.941 723.071 119.922 726.671 114.762C730.271 109.482 732.611 103.302 733.691 96.2217L717.852 95.1416C716.772 102.342 714.011 107.742 709.571 111.342L709.152 111.674C704.789 115.052 699.469 116.741 693.191 116.741V115.741C699.474 115.741 704.703 114.001 708.941 110.564C713.139 107.161 715.809 102.016 716.862 94.9932L716.999 94.0811L734.844 95.2979L734.68 96.3721C733.58 103.582 731.191 109.907 727.497 115.325L727.491 115.334C723.795 120.632 718.987 124.758 713.085 127.711L713.086 127.712C707.285 130.674 700.645 132.142 693.191 132.142C684.435 132.142 676.721 130.191 670.084 126.259L669.445 125.872L669.438 125.868C662.995 121.811 657.95 116.139 654.3 108.884L653.951 108.177L653.948 108.171C650.273 100.452 648.451 91.4799 648.451 81.2812ZM665.291 81.2812C665.291 70.2414 667.751 61.6013 672.671 55.3613L673.457 55.9805C668.722 61.9866 666.291 70.38 666.291 81.2812C666.291 92.1812 668.72 100.64 673.462 106.77C678.171 112.738 684.705 115.741 693.191 115.741V116.741L692.376 116.732C684.276 116.55 677.863 113.625 673.138 107.957L672.671 107.382C667.751 101.022 665.291 92.3213 665.291 81.2812Z"/></clipPath>
<clipPath id="bgblur_14_314_1715_clip_path" transform="translate(-547.451 -15.4219)"><path d="M562.451 32.5811H578.289L578.591 46.1934C579.462 44.5899 580.455 43.1157 581.572 41.7734C584.67 37.9325 588.4 35.0694 592.757 33.2021L592.767 33.1982C597.215 31.345 601.966 30.4219 607.011 30.4219C614.471 30.4219 620.683 32.0719 625.57 35.4521C630.531 38.8009 634.191 43.3315 636.544 49.0156C639.008 54.5598 640.23 60.761 640.23 67.6016V129.981H623.11V71.9219C623.11 66.1158 622.399 61.3195 621.011 57.5029L620.999 57.4697C619.814 53.8056 617.945 51.0633 615.422 49.1748L614.908 48.8086L614.887 48.793C612.101 46.7875 608.423 45.7412 603.771 45.7412C596.907 45.7413 591.248 47.8582 586.724 52.0635L586.289 52.4775C581.864 56.7895 579.57 63.2118 579.57 71.9219V129.981H562.451V32.5811ZM563.451 128.981H578.57V71.9219C578.57 63.3193 580.767 56.7436 585.159 52.1953L585.591 51.7617C590.391 47.0818 596.451 44.7413 603.771 44.7412C608.57 44.7412 612.471 45.8215 615.471 47.9814C618.471 50.0214 620.631 53.0812 621.951 57.1611C623.391 61.1211 624.11 66.0419 624.11 71.9219V128.981H639.23V67.6016C639.23 60.8817 638.031 54.8218 635.631 49.4219C633.351 43.9019 629.811 39.5213 625.011 36.2812C620.477 33.1426 614.705 31.5239 607.693 31.4258L607.011 31.4219C602.091 31.4219 597.47 32.3211 593.15 34.1211C588.95 35.9211 585.351 38.6814 582.351 42.4014C580.425 44.712 578.872 47.4437 577.688 50.5947L577.311 33.5811H563.451V128.981Z"/></clipPath>
<clipPath id="bgblur_15_314_1715_clip_path" transform="translate(-451.83 -15.4219)"><path d="M466.83 81.2812C466.83 71.0876 468.59 62.1773 472.145 54.5781L472.15 54.5654C475.822 46.9772 480.919 41.0704 487.446 36.8818L488.074 36.4834C494.599 32.4315 502.203 30.4219 510.851 30.4219C519.297 30.4219 526.804 32.4438 533.339 36.5127C539.877 40.4635 544.917 46.2563 548.47 53.8457C552.152 61.4552 553.97 70.6735 553.97 81.4619V86.9619H484.74C485.452 96.4886 488.077 103.558 492.494 108.312C497.195 113.241 503.516 115.741 511.57 115.741V116.741L510.799 116.733C503.135 116.582 496.947 114.164 492.236 109.478L491.771 109.001C486.971 103.841 484.27 96.1616 483.67 85.9619H552.97V81.4619C552.97 70.7819 551.17 61.7213 547.57 54.2812C544.199 47.0738 539.476 41.5555 533.402 37.7266L532.811 37.3613C526.649 33.5251 519.587 31.5467 511.624 31.4268L510.851 31.4219C502.091 31.4219 494.47 33.5217 487.99 37.7217L487.398 38.1084C481.321 42.1626 476.537 47.7934 473.05 55.001C469.57 62.4409 467.83 71.2013 467.83 81.2812C467.83 91.3611 469.57 100.181 473.05 107.741C476.65 115.181 481.69 120.941 488.17 125.021C494.564 128.974 502.084 131.012 510.729 131.136L511.57 131.142C521.65 131.142 530.17 128.441 537.13 123.041C544.21 117.521 549.01 110.501 551.53 101.981L535.33 100.722C533.77 105.522 530.95 109.422 526.87 112.422C522.91 115.302 517.81 116.741 511.57 116.741V115.741C517.657 115.741 522.535 114.338 526.282 111.612C530.192 108.736 532.884 105.011 534.379 100.412L534.622 99.6631L552.84 101.08L552.489 102.265C549.909 110.987 544.988 118.183 537.745 123.83L537.743 123.831C530.583 129.386 521.839 132.142 511.57 132.142C502.701 132.142 494.926 130.192 488.283 126.259L487.645 125.872L487.638 125.868C481.194 121.811 476.149 116.139 472.499 108.884L472.15 108.177L472.146 108.168L472.142 108.159C468.59 100.443 466.83 91.4755 466.83 81.2812ZM511.51 45.8281C518.292 45.9588 523.893 48.1167 528.311 52.3018C532.99 56.6218 535.69 63.4018 536.41 72.6416H483.67C484.99 63.7616 487.99 57.1011 492.67 52.6611C497.47 48.1012 503.531 45.8213 510.851 45.8213L511.51 45.8281ZM510.851 46.8213C503.758 46.8213 497.953 49.0226 493.359 53.3867C489.092 57.4353 486.223 63.4806 484.843 71.6416H535.317C534.488 63.1027 531.881 56.9581 527.632 53.0361L527.622 53.0273C523.272 48.9063 517.71 46.8214 510.851 46.8213Z"/></clipPath>
<clipPath id="bgblur_16_314_1715_clip_path" transform="translate(-356.713 -15.4219)"><path d="M457.312 122.501V33.5811H442.913V48.7012C440.821 43.5863 437.207 39.4853 432.074 36.3975L431.573 36.1016C426.458 33.0791 420.667 31.5203 414.201 31.4258L413.573 31.4219C405.653 31.4219 398.573 33.4014 392.333 37.3613C386.213 41.3213 381.413 46.7812 377.933 53.7412C374.453 60.5812 372.713 68.5616 372.713 77.6816L372.718 78.5225C372.823 87.1792 374.562 94.8788 377.933 101.621C381.533 108.581 386.453 114.041 392.693 118.001C399.053 121.961 406.253 123.941 414.293 123.941C420.533 123.941 426.173 122.441 431.213 119.441C436.253 116.441 439.913 112.422 442.193 107.382V122.861L442.187 123.509C442.045 130.146 439.707 135.15 435.173 138.521C430.613 142.001 424.013 143.741 415.373 143.741V142.741C423.899 142.741 430.249 141.021 434.566 137.727L434.576 137.719C438.952 134.465 441.193 129.574 441.193 122.861V111.312C438.866 114.934 435.705 117.931 431.725 120.301C426.52 123.399 420.701 124.941 414.293 124.941C406.337 124.941 399.157 123.041 392.779 119.226L392.164 118.851L392.157 118.846C385.959 114.912 381.037 109.537 377.394 102.743L377.045 102.081L377.038 102.068C373.479 94.9494 371.713 86.8123 371.713 77.6816C371.713 68.4363 373.476 60.2972 377.038 53.2939C380.592 46.1854 385.51 40.5851 391.79 36.5215L391.797 36.5166C398.209 32.4476 405.478 30.4219 413.573 30.4219C420.454 30.4219 426.634 32.0206 432.082 35.2402C436.306 37.6823 439.59 40.7816 441.913 44.5371V32.5811H458.312V122.501C458.312 130.091 456.597 136.642 453.121 142.108L453.122 142.109C449.648 147.692 444.687 151.901 438.277 154.736L438.276 154.735C431.877 157.686 424.232 159.142 415.373 159.142C408.421 159.142 402.109 157.982 396.451 155.646C390.976 153.384 386.349 150.192 382.586 146.066L382.225 145.664C378.514 141.475 375.962 136.644 374.571 131.185L374.44 130.654L374.165 129.504L391.964 128.291L392.204 129.033C393.538 133.147 395.827 136.368 399.069 138.735L399.387 138.962L399.392 138.966C402.868 141.433 408.145 142.741 415.373 142.741V143.741L414.692 143.737C407.71 143.657 402.416 142.339 398.812 139.781C395.213 137.261 392.693 133.781 391.253 129.342L375.413 130.422C376.733 135.942 379.253 140.801 382.973 145.001C386.693 149.201 391.313 152.442 396.833 154.722C402.008 156.859 407.763 157.994 414.099 158.128L415.373 158.142C423.859 158.142 431.163 156.79 437.284 154.087L437.873 153.821C444.113 151.061 448.913 146.981 452.273 141.581C455.633 136.301 457.312 129.941 457.312 122.501ZM388.553 77.6816C388.553 68.1492 390.692 60.587 394.972 54.9961L395.393 54.4619C400.073 48.702 406.613 45.8214 415.013 45.8213C420.533 45.8213 425.333 47.1413 429.413 49.7812C433.613 52.3012 436.793 55.9617 438.953 60.7617C441.233 65.4417 442.313 71.0818 442.193 77.6816C442.073 87.5215 439.553 95.3211 434.633 101.081C429.713 106.721 423.173 109.541 415.013 109.541V108.541C422.913 108.541 429.168 105.825 433.88 100.424C438.603 94.8899 441.075 87.3412 441.193 77.6689V77.6631C441.311 71.1798 440.248 65.7043 438.054 61.1992L438.047 61.1855L438.041 61.1719C435.958 56.5433 432.91 53.0457 428.898 50.6387L428.884 50.6299L428.87 50.6211C424.973 48.0995 420.367 46.8213 415.013 46.8213C406.87 46.8214 400.633 49.5969 396.17 55.0889L396.171 55.0898C391.799 60.4975 389.553 67.9892 389.553 77.6816L389.56 78.583C389.699 87.827 391.991 95.0771 396.335 100.434C400.924 105.826 407.113 108.541 415.013 108.541V109.541C406.853 109.541 400.373 106.721 395.573 101.081C391.039 95.501 388.701 88.0067 388.56 78.5977L388.553 77.6816Z"/></clipPath>
<clipPath id="bgblur_17_314_1715_clip_path" transform="translate(-330.645 15)"><path d="M347.005 33.5801V128.98H362.124V33.5801H347.005ZM346.645 1V18.6406H362.484V1H346.645ZM363.124 129.98H346.005V32.5801H363.124V129.98ZM363.484 19.6406H345.645V0H363.484V19.6406Z"/></clipPath>
<clipPath id="bgblur_18_314_1715_clip_path" transform="translate(-294.424 14.8203)"><path d="M325.543 109.72V1.17969H310.424V110.979L310.429 111.56C310.534 117.503 312.272 121.869 315.644 124.659C319.015 127.449 323.343 128.888 328.629 128.976L329.144 128.979H339.764V115.659H331.483V114.659H340.764V129.979H329.144C323.444 129.979 318.702 128.489 315.006 125.43C311.218 122.295 309.424 117.398 309.424 110.979V0.179688H326.543V109.72L326.549 110.043C326.599 111.6 327.012 112.721 327.692 113.51C328.535 114.236 329.757 114.659 331.483 114.659V115.659C329.563 115.659 328.063 115.18 326.983 114.22C326.083 113.207 325.605 111.825 325.549 110.074L325.543 109.72Z"/></clipPath>
<clipPath id="bgblur_19_314_1715_clip_path" transform="translate(-258.193 14.8203)"><path d="M289.312 109.72V1.17969H274.193V110.979L274.198 111.56C274.304 117.503 276.042 121.869 279.413 124.659C282.784 127.449 287.113 128.888 292.398 128.976L292.913 128.979H303.533V115.659H295.253V114.659H304.533V129.979H292.913C287.214 129.979 282.472 128.489 278.775 125.43C274.987 122.295 273.193 117.398 273.193 110.979V0.179688H290.312V109.72L290.318 110.043C290.368 111.6 290.782 112.721 291.462 113.51C292.304 114.236 293.526 114.659 295.253 114.659V115.659C293.333 115.659 291.833 115.18 290.753 114.22C289.853 113.207 289.375 111.825 289.318 110.074L289.312 109.72Z"/></clipPath>
<clipPath id="bgblur_20_314_1715_clip_path" transform="translate(-161.693 -15.4219)"><path d="M176.693 81.2812C176.693 71.0876 178.453 62.1773 182.008 54.5781L182.014 54.5654C185.685 46.9772 190.782 41.0704 197.31 36.8818L197.938 36.4834C204.462 32.4315 212.067 30.4219 220.714 30.4219C229.16 30.4219 236.667 32.4438 243.202 36.5127C249.741 40.4635 254.781 46.2563 258.333 53.8457C262.015 61.4552 263.833 70.6735 263.833 81.4619V86.9619H194.604C195.315 96.4886 197.941 103.558 202.357 108.312C207.058 113.241 213.379 115.741 221.434 115.741V116.741L220.662 116.733C212.998 116.582 206.811 114.164 202.1 109.478L201.634 109.001C196.834 103.841 194.133 96.1616 193.533 85.9619H262.833V81.4619C262.833 70.7819 261.034 61.7213 257.434 54.2812C254.062 47.0738 249.34 41.5555 243.266 37.7266L242.674 37.3613C236.513 33.5251 229.45 31.5467 221.487 31.4268L220.714 31.4219C211.954 31.4219 204.334 33.5217 197.854 37.7217L197.262 38.1084C191.184 42.1626 186.401 47.7934 182.913 55.001C179.433 62.4409 177.693 71.2013 177.693 81.2812C177.693 91.3611 179.433 100.181 182.913 107.741C186.513 115.181 191.553 120.941 198.033 125.021C204.427 128.974 211.947 131.012 220.593 131.136L221.434 131.142C231.514 131.142 240.033 128.441 246.993 123.041C254.073 117.521 258.874 110.501 261.394 101.981L245.193 100.722C243.633 105.522 240.813 109.422 236.733 112.422C232.773 115.302 227.673 116.741 221.434 116.741V115.741C227.52 115.741 232.398 114.338 236.146 111.612C240.055 108.736 242.748 105.011 244.242 100.412L244.485 99.6631L262.703 101.08L262.353 102.265C259.773 110.987 254.851 118.183 247.608 123.83L247.606 123.831C240.446 129.386 231.702 132.142 221.434 132.142C212.564 132.142 204.79 130.192 198.146 126.259L197.508 125.872L197.501 125.868C191.058 121.811 186.012 116.139 182.362 108.884L182.014 108.177L182.009 108.168L182.005 108.159C178.453 100.443 176.693 91.4755 176.693 81.2812ZM221.373 45.8281C228.156 45.9588 233.756 48.1167 238.174 52.3018C242.854 56.6218 245.553 63.4018 246.273 72.6416H193.533C194.853 63.7616 197.853 57.1011 202.533 52.6611C207.333 48.1012 213.394 45.8213 220.714 45.8213L221.373 45.8281ZM220.714 46.8213C213.621 46.8213 207.816 49.0226 203.223 53.3867C198.955 57.4353 196.086 63.4806 194.706 71.6416H245.181C244.351 63.1027 241.744 56.9581 237.495 53.0361L237.485 53.0273C233.135 48.9063 227.573 46.8214 220.714 46.8213Z"/></clipPath>
<clipPath id="bgblur_21_314_1715_clip_path" transform="translate(-105.998 4.73828)"><path d="M151.157 104.142V46.9014H176.538V33.5811H151.157V11.2617H136.038V33.5811H121.998V46.9014H136.038V104.501L136.044 105.282C136.167 113.285 138.205 119.205 142.157 123.041C146.226 126.877 152.379 128.856 160.614 128.976L161.418 128.981H176.538V115.661H162.857V114.661H177.538V129.981H161.418C152.921 129.981 146.353 128.098 141.896 124.157L141.472 123.769L141.467 123.764L141.461 123.759C137.111 119.536 135.038 113.042 135.038 104.501V47.9014H120.998V32.5811H135.038V10.2617H152.157V32.5811H177.538V47.9014H152.157V104.142L152.169 104.915C152.275 108.563 153.143 110.922 154.549 112.255L154.696 112.389C156.356 113.841 159.012 114.661 162.857 114.661V115.661C159.021 115.661 156.142 114.873 154.221 113.297L154.038 113.142C152.238 111.567 151.281 108.831 151.169 104.936L151.157 104.142Z"/></clipPath>
<clipPath id="bgblur_22_314_1715_clip_path" transform="translate(-23.1152 -15.4219)"><path d="M38.1152 32.5811H53.9531L54.2549 46.1934C55.1262 44.5899 56.1192 43.1157 57.2363 41.7734C60.3339 37.9325 64.064 35.0694 68.4209 33.2021L68.4307 33.1982C72.8786 31.345 77.6298 30.4219 82.6748 30.4219C90.1352 30.4219 96.3466 32.0719 101.234 35.4521C106.195 38.8009 109.855 43.3315 112.208 49.0156C114.672 54.5598 115.895 60.761 115.895 67.6016V129.981H98.7744V71.9219C98.7744 66.1158 98.0626 61.3195 96.6748 57.5029L96.6631 57.4697C95.4776 53.8056 93.609 51.0633 91.0859 49.1748L90.5723 48.8086L90.5508 48.793C87.7655 46.7875 84.0873 45.7412 79.4346 45.7412C72.5709 45.7413 66.9123 47.8582 62.3877 52.0635L61.9531 52.4775C57.5277 56.7895 55.2344 63.2118 55.2344 71.9219V129.981H38.1152V32.5811ZM39.1152 128.981H54.2344V71.9219C54.2344 63.3193 56.4311 56.7436 60.8232 52.1953L61.2549 51.7617C66.0548 47.0818 72.1147 44.7413 79.4346 44.7412C84.2345 44.7412 88.1348 45.8215 91.1348 47.9814C94.1347 50.0214 96.2952 53.0812 97.6152 57.1611C99.0552 61.1211 99.7744 66.0419 99.7744 71.9219V128.981H114.895V67.6016C114.895 60.8817 113.695 54.8218 111.295 49.4219C109.015 43.9019 105.475 39.5213 100.675 36.2812C96.1411 33.1426 90.3686 31.5239 83.3574 31.4258L82.6748 31.4219C77.7548 31.4219 73.1344 32.3211 68.8145 34.1211C64.6145 35.9211 61.0146 38.6814 58.0146 42.4014C56.0891 44.712 54.5365 47.4437 53.3525 50.5947L52.9746 33.5811H39.1152V128.981Z"/></clipPath>
<clipPath id="bgblur_23_314_1715_clip_path" transform="translate(15 14.8203)"><path d="M1 1.17969V128.979H16.4805V1.17969H1ZM17.4805 129.979H0V0.179688H17.4805V129.979Z"/></clipPath>
</defs>
<!-- Invisible <text> overlay so the word is selectable, copyable, and indexed by search engines.
     Visual rendering above uses Figma-exported <path>s — this <text> is for semantics only. -->
<title>Intelligence</title>
<text
  x="0" y="128"
  font-family="Geist Variable, ui-sans-serif, system-ui, sans-serif"
  font-size="160" font-weight="400"
  textLength="822.097" lengthAdjust="spacingAndGlyphs"
  fill="transparent" stroke="none">Intelligence</text>
</svg>
